<?xml version="1.0" encoding="UTF-8"?>
<svg version="1.1" xmlns="http://www.w3.org/2000/svg" width="512" height="512">
<path d="M0 0 C0.97984863 0.35408936 0.97984863 0.35408936 1.97949219 0.71533203 C22.09791134 8.16962446 38.04075295 21.75351024 49.54833984 39.74462891 C59.01069309 54.47627466 72.00972849 59.26866752 88.6171875 62.98046875 C90.08817766 63.32189057 91.55880388 63.66488376 93.02908325 64.00935364 C96.86081708 64.90376745 100.69615383 65.78147367 104.53289795 66.65411377 C110.69315621 68.05704023 116.84853887 69.48083718 123.00180435 70.9140873 C125.13722558 71.40814464 127.27478998 71.89189508 129.41281128 72.3745575 C130.72825006 72.67798663 132.04361268 72.98174622 133.35888672 73.28588867 C134.49961639 73.54536789 135.64034607 73.80484711 136.81564331 74.07218933 C142.4986574 75.72802177 147.06483294 77.69412108 150 83 C150.92447247 88.16667794 150.65450277 91.83878541 148.0625 96.4375 C144.04314752 99.80063167 139.34522903 102 134 102 C133.83564453 103.66675781 133.83564453 103.66675781 133.66796875 105.3671875 C131.53512732 125.85029635 131.53512732 125.85029635 126.9375 131.5625 C122.61992023 134.76586564 118.22628406 134.7363218 113 134 C109.87421857 132.3279253 107.60718825 130.2143765 106 127 C105.51697425 120.3275048 106.07129992 114.38881901 108 108 C107.23300781 108.23074219 106.46601563 108.46148437 105.67578125 108.69921875 C99.18758075 110.60573992 92.71686092 112.30874938 86.11108398 113.76391602 C71.25928417 117.08095491 59.04684371 121.49882114 50.20703125 134.671875 C49.06671977 136.51933616 47.93521939 138.3722642 46.8125 140.23046875 C43.72280276 144.9515794 39.89452487 148.93826833 36 153 C35.12021484 153.95712891 35.12021484 153.95712891 34.22265625 154.93359375 C20.79500052 169.11951709 -0.30929192 178.9441791 -19.7980957 180.17700195 C-49.26824815 180.80455844 -73.16453392 174.92824827 -95.09228516 154.4230957 C-100.8056717 148.87210733 -105.26509231 142.95185884 -109.54833984 136.25537109 C-119.01069309 121.52372534 -132.00972849 116.73133248 -148.6171875 113.01953125 C-150.08817766 112.67810943 -151.55880388 112.33511624 -153.02908325 111.99064636 C-156.86081708 111.09623255 -160.69615383 110.21852633 -164.53289795 109.34588623 C-170.69315621 107.94295977 -176.84853887 106.51916282 -183.00180435 105.0859127 C-185.13722558 104.59185536 -187.27478998 104.10810492 -189.41281128 103.6254425 C-190.72825006 103.32201337 -192.04361268 103.01825378 -193.35888672 102.71411133 C-194.49961639 102.45463211 -195.64034607 102.19515289 -196.81564331 101.92781067 C-202.4986574 100.27197823 -207.06483294 98.30587892 -210 93 C-210.9191273 87.86319509 -210.636164 84.16630067 -208.125 79.5625 C-205.67202306 77.04190045 -203.15558263 76.27428036 -199.8046875 75.33984375 C-198.90476074 75.08452881 -198.00483398 74.82921387 -197.07763672 74.56616211 C-196.3920166 74.37932861 -195.70639648 74.19249512 -195 74 C-194.86948242 73.23856689 -194.73896484 72.47713379 -194.60449219 71.69262695 C-194.0018719 68.22967108 -193.37620322 64.77126574 -192.75 61.3125 C-192.54503906 60.11431641 -192.34007812 58.91613281 -192.12890625 57.68164062 C-191.80986328 55.94624023 -191.80986328 55.94624023 -191.484375 54.17578125 C-191.29584961 53.11270752 -191.10732422 52.04963379 -190.91308594 50.9543457 C-189.61865366 46.76613046 -187.52703903 43.9598531 -183.8125 41.625 C-179.70783455 40.71285212 -176.05093072 40.84049447 -172 42 C-169.29447612 44.19823815 -167.55221667 45.89556667 -166 49 C-165.51697425 55.6724952 -166.07129992 61.61118099 -168 68 C-166.72382813 67.65388672 -166.72382813 67.65388672 -165.421875 67.30078125 C-164.21015625 66.97464844 -162.9984375 66.64851563 -161.75 66.3125 C-161.08830811 66.13315918 -160.42661621 65.95381836 -159.74487305 65.76904297 C-155.83487568 64.71996447 -151.91855762 63.73738757 -147.97265625 62.83203125 C-132.59296225 59.27120103 -119.43853481 55.0848754 -110.20703125 41.328125 C-109.06577964 39.4791407 -107.93299163 37.62490648 -106.80859375 35.765625 C-103.71918344 31.04142953 -99.89083475 27.06769088 -96 23 C-95.38640625 22.31164062 -94.7728125 21.62328125 -94.140625 20.9140625 C-84.95609011 10.98377478 -72.59535648 4.52387804 -60 0 C-58.29070312 -0.62068359 -58.29070312 -0.62068359 -56.546875 -1.25390625 C-38.86714691 -6.65186578 -17.37292091 -6.3776409 0 0 Z M-66.40625 57.0625 C-76.24890124 69.02807602 -78.46520632 81.92634446 -77 97 C-74.65958771 109.39861275 -66.89285948 120.34700605 -56.6875 127.65625 C-44.60489325 135.3589118 -31.52953219 136.98759709 -17.5234375 134.34375 C-4.50074666 130.44030778 6.12737247 121.35070272 12.7109375 109.57421875 C18.33801871 98.33710809 19.05039372 84.55336095 15.4375 72.5 C10.05666194 58.80159888 -0.06787977 49.09272151 -13.23046875 42.9609375 C-32.37857545 35.90810646 -52.80219081 42.68839973 -66.40625 57.0625 Z " fill="#000000" transform="translate(286,168)"/>
<path d="M0 0 C3.15689734 1.60714774 5.19415756 2.97438234 7.375 5.75 C9.00087215 11.60313974 8.50065047 15.61418232 5.75 20.9375 C-9.2274008 46.34621995 -29.90698768 69.92926663 -54 87 C-54.65194336 87.46921875 -55.30388672 87.9384375 -55.97558594 88.421875 C-65.04546414 94.89731646 -74.445355 100.50839676 -84.3125 105.6875 C-85.29726318 106.20497803 -86.28202637 106.72245605 -87.29663086 107.25561523 C-91.56266392 109.44206349 -95.23463869 111.22653664 -100 112 C-100 112.66 -100 113.32 -100 114 C-99.401875 114.2475 -98.80375 114.495 -98.1875 114.75 C-95.6175138 116.21856354 -94.5672581 117.49765514 -93 120 C-92.19496708 124.06541625 -92.04745959 128.23956421 -94.0546875 131.94921875 C-96.28777126 134.67780927 -98.27617232 136.66805944 -101.78515625 137.34375 C-120.73258889 138.64374538 -142.1647264 122.60449034 -156 111 C-156.99515625 110.18144531 -157.9903125 109.36289062 -159.015625 108.51953125 C-168.69368885 100.14623255 -178.00468642 89.84888326 -183.1640625 78.0546875 C-184.67409321 75.27215227 -185.35328627 74.22214394 -188.37817383 73.18310547 C-191.42070801 72.83201328 -194.37489072 72.75324331 -197.4375 72.75 C-199.70237479 72.65565761 -201.96675329 72.54864378 -204.23046875 72.4296875 C-205.36790527 72.37135742 -206.5053418 72.31302734 -207.67724609 72.25292969 C-241.5659862 69.67330186 -276.49623114 51.10864527 -300 27 C-301.88539226 23.22921549 -301.6298243 19.09691535 -301 15 C-299.20968802 11.31367496 -296.91732697 8.79691368 -293.1015625 7.2109375 C-288.54651577 6.2927265 -285.09148617 7.26647884 -281.1015625 9.515625 C-278.69856831 11.21290714 -276.64028393 13.10640446 -274.5 15.125 C-252.6768422 35.44656437 -223.71620967 43.68462733 -195 48 C-195.14002441 47.28497314 -195.28004883 46.56994629 -195.42431641 45.83325195 C-199.09337251 26.51636902 -199.09337251 26.51636902 -195.25 20.3125 C-191.74408999 16.70920361 -190.19032272 16.11519252 -185.125 15.625 C-180.78082563 15.75443536 -178.29072451 17.09191787 -175 20 C-172.01346745 24.88437835 -171.35277766 29.32218671 -170.6875 34.875 C-167.35430762 58.60448323 -154.6378113 79.54091567 -135.8203125 94.33984375 C-132.97873499 96.01251749 -131.92991377 96.58640995 -128.75 96 C-127.14669764 95.38290161 -125.56575626 94.70696267 -124 94 C-122.1789076 93.3646411 -120.35769336 92.7296185 -118.53491211 92.09912109 C-95.18982719 83.79179993 -74.66136521 71.24398511 -56 55 C-55.42604492 54.50048828 -54.85208984 54.00097656 -54.26074219 53.48632812 C-45.43239675 45.73385686 -37.83008021 37.31401277 -30.6875 28 C-30.130625 27.2766748 -29.57375 26.55334961 -29 25.80810547 C-24.70400432 20.1370471 -20.8696936 14.26364778 -17.3347168 8.08984375 C-13.03752451 0.79467591 -8.20010295 -1.31374889 0 0 Z " fill="#000000" transform="translate(441,347)"/>
<path d="M0 0 C15.56288403 5.93428983 29.92723614 14.26134032 42.63671875 25.01171875 C43.14396484 25.43533691 43.65121094 25.85895508 44.17382812 26.29541016 C50.19522335 31.36856919 55.54135697 36.78742525 60.44921875 42.94921875 C60.91972656 43.53445312 61.39023438 44.1196875 61.875 44.72265625 C64.84817898 48.57079933 66.49829045 52.20301093 68.26171875 56.76171875 C69.7464162 59.88037581 69.7464162 59.88037581 72.63671875 62.01171875 C78.59401966 63.5685047 84.81719291 63.48393039 90.9375 63.6875 C123.70673188 64.83754467 157.74459315 82.15381419 181.63671875 104.01171875 C185.45217143 108.28423087 186.90558212 111.30957479 186.63671875 117.01171875 C185.35157361 120.94275095 184.01620163 122.68398353 180.88671875 125.38671875 C177.00562207 127.32726709 174.92786841 127.61398537 170.63671875 127.01171875 C165.93842196 124.93362594 162.43726325 122.05576261 158.51171875 118.76171875 C152.5867061 113.83630007 146.35223907 109.77174431 139.63671875 106.01171875 C139.03230957 105.67253418 138.42790039 105.33334961 137.80517578 104.98388672 C120.04477429 95.18964923 101.57295174 91.00766689 81.63671875 88.01171875 C81.77674316 88.72674561 81.91676758 89.44177246 82.06103516 90.1784668 C85.73009126 109.49534973 85.73009126 109.49534973 81.88671875 115.69921875 C78.38080874 119.30251514 76.82704147 119.89652623 71.76171875 120.38671875 C67.41754438 120.25728339 64.92744326 118.91980088 61.63671875 116.01171875 C58.6501862 111.1273404 57.98949641 106.68953204 57.32421875 101.13671875 C53.99102637 77.40723552 41.27453005 56.47080308 22.45703125 41.671875 C19.61545374 39.99920126 18.56663252 39.4253088 15.38671875 40.01171875 C13.78378933 40.62978523 12.20287599 41.30564483 10.63671875 42.01171875 C8.79809352 42.64684342 6.95938826 43.28174229 5.11962891 43.91357422 C-4.09136909 47.17007649 -12.75300097 51.42633628 -21.36328125 56.01171875 C-21.95850586 56.32334961 -22.55373047 56.63498047 -23.16699219 56.95605469 C-36.37241696 63.91596903 -48.28199312 72.83226531 -59.1953125 82.99609375 C-61.26550672 84.92081486 -63.39281234 86.74919362 -65.55078125 88.57421875 C-69.55818546 92.08668459 -72.99157883 95.89074913 -76.36328125 100.01171875 C-77.19859375 101.03265625 -78.03390625 102.05359375 -78.89453125 103.10546875 C-84.34295482 109.86508289 -89.38308597 116.77750187 -94.01489258 124.12524414 C-97.03721634 128.83889574 -99.22206466 131.44611437 -104.67578125 132.88671875 C-109.15326048 133.03849771 -111.50281182 132.26972917 -115.36328125 130.01171875 C-118.17156431 126.8433994 -119.24284321 124.82467551 -119.86328125 120.63671875 C-118.82248508 113.0909465 -114.15649855 106.90541317 -109.80078125 100.82421875 C-109.26976807 100.08155762 -108.73875488 99.33889648 -108.19165039 98.57373047 C-94.63699061 79.82994115 -78.27861351 62.41388654 -59.36328125 49.01171875 C-58.71133789 48.5425 -58.05939453 48.07328125 -57.38769531 47.58984375 C-48.31781711 41.11440229 -38.91792625 35.50332199 -29.05078125 30.32421875 C-28.06601807 29.80674072 -27.08125488 29.2892627 -26.06665039 28.75610352 C-21.80061733 26.56965526 -18.12864256 24.78518211 -13.36328125 24.01171875 C-13.36328125 23.35171875 -13.36328125 22.69171875 -13.36328125 22.01171875 C-13.96140625 21.76421875 -14.55953125 21.51671875 -15.17578125 21.26171875 C-17.74576745 19.79315521 -18.79602315 18.51406361 -20.36328125 16.01171875 C-21.16831417 11.9463025 -21.31582166 7.77215454 -19.30859375 4.0625 C-13.96266568 -2.46965471 -7.71851426 -2.26804194 0 0 Z " fill="#000000" transform="translate(184.36328125,28.98828125)"/>
<path d="M0 0 C1.25659424 0.24145752 1.25659424 0.24145752 2.53857422 0.48779297 C23.30472531 4.62512566 43.43766922 11.81673548 62 22 C63.3448943 22.7164421 64.68995026 23.43258081 66.03515625 24.1484375 C75.20489232 29.10177629 83.66056423 34.75845354 92 41 C92.28746094 39.74058594 92.57492187 38.48117188 92.87109375 37.18359375 C93.86404907 32.83329173 95.25116196 30.63216288 99 28 C103.53800497 26.5526063 107.54673166 26.38171613 111.875 28.5 C116.40890682 31.6203331 117.42716096 35.53824236 118.6171875 40.65234375 C123.99276203 70.4389177 119.00826265 100.47938564 105.76953125 127.35546875 C105.4662793 127.99291016 105.16302734 128.63035156 104.85058594 129.28710938 C104 131 104 131 102.50390625 133.41796875 C101.63957542 137.84682674 104.09936404 141.25525302 106.125 145.125 C106.9717707 146.83183808 107.81554602 148.5401656 108.65625 150.25 C109.06359375 151.06984375 109.4709375 151.8896875 109.890625 152.734375 C113.15825182 159.40769739 115.98313883 165.52378678 114.6875 173.0546875 C113.32593004 176.9073116 110.56955359 179.21522321 107 181 C104.828125 181.2734375 104.828125 181.2734375 102.25 181.375 C100.98929687 181.44847656 100.98929687 181.44847656 99.703125 181.5234375 C95.88215413 180.78353852 93.49292959 178.87398019 91 176 C89.58607883 173.59477876 88.6202461 171.12416034 87.6875 168.5 C87.43677734 167.84902344 87.18605469 167.19804687 86.92773438 166.52734375 C85.61992263 163.05620801 84.59846068 159.66117122 84 156 C83.03578125 156.77085937 82.0715625 157.54171875 81.078125 158.3359375 C79.80223252 159.34914623 78.52618258 160.36215669 77.25 161.375 C76.61578125 161.88289062 75.9815625 162.39078125 75.328125 162.9140625 C74.709375 163.40390625 74.090625 163.89375 73.453125 164.3984375 C72.88754883 164.84880371 72.32197266 165.29916992 71.73925781 165.76318359 C66.70986396 169.33967282 62.06736592 169.9554907 56 169 C52.37839449 167.11299112 50.31065578 164.93196733 49 161 C48.64210304 155.45259707 48.57910936 152.5816719 52 148 C54.4126058 145.83630795 56.98534354 143.89985919 59.5625 141.9375 C79.81996678 125.887755 89.10937643 105.22158311 93.6875 80.25 C93.60790432 77.40047459 93.16654369 76.21459297 91.40234375 73.94140625 C88.7295297 71.44280649 85.91972673 69.19725362 83 67 C82.3404834 66.49774902 81.6809668 65.99549805 81.00146484 65.47802734 C47.12831641 39.86699839 8.58924443 23.70856976 -34.25366211 22.42895508 C-40.76597061 22.18780965 -46.83046725 21.80794396 -52 17.5 C-54.51102248 14.01531574 -54.70299658 10.61599173 -54.5 6.41015625 C-53.68318836 2.4728689 -51.92240049 0.71365759 -49 -2 C-36.71199741 -8.14400129 -13.17406602 -2.56353323 0 0 Z " fill="#000000" transform="translate(298,39)"/>
<path d="M0 0 C4.59166951 3.71572025 6.6182799 7.80655924 8.8125 13.125 C9.27946289 14.19814453 9.27946289 14.19814453 9.75585938 15.29296875 C11.049543 18.33525772 12 20.66211576 12 24 C12.96421875 23.22914063 13.9284375 22.45828125 14.921875 21.6640625 C16.19776748 20.65085377 17.47381742 19.63784331 18.75 18.625 C19.70132813 17.86316406 19.70132813 17.86316406 20.671875 17.0859375 C21.6 16.35117187 21.6 16.35117187 22.546875 15.6015625 C23.11245117 15.15119629 23.67802734 14.70083008 24.26074219 14.23681641 C29.29013604 10.66032718 33.93263408 10.0445093 40 11 C43.62160551 12.88700888 45.68934422 15.06803267 47 19 C47.35789696 24.54740293 47.42089064 27.4183281 44 32 C41.5873942 34.16369205 39.01465646 36.10014081 36.4375 38.0625 C16.18003322 54.112245 6.89062357 74.77841689 2.3125 99.75 C2.37824737 102.68123686 2.85043597 103.81304496 4.703125 106.12890625 C7.36204284 108.58972591 10.12002025 110.80100068 13 113 C13.85948242 113.66418945 13.85948242 113.66418945 14.73632812 114.34179688 C23.13682209 120.80301823 31.80363242 126.71787583 41 132 C41.93054199 132.53705566 41.93054199 132.53705566 42.87988281 133.08496094 C69.53536354 148.30723398 99.58713768 156.64991347 130.25537109 157.5715332 C136.76694931 157.81144801 142.83130419 158.19275349 148 162.5 C150.51102248 165.98468426 150.70299658 169.38400827 150.5 173.58984375 C149.68318836 177.5271311 147.92240049 179.28634241 145 182 C132.71199741 188.14400129 109.17406602 182.56353323 96 180 C95.16227051 179.83902832 94.32454102 179.67805664 93.46142578 179.51220703 C72.69527469 175.37487434 52.56233078 168.18326452 34 158 C32.6551057 157.2835579 31.31004974 156.56741919 29.96484375 155.8515625 C20.79510768 150.89822371 12.33943577 145.24154646 4 139 C3.71253906 140.25941406 3.42507812 141.51882813 3.12890625 142.81640625 C2.13595093 147.16670827 0.74883804 149.36783712 -3 152 C-7.53800497 153.4473937 -11.54673166 153.61828387 -15.875 151.5 C-20.39832067 148.38695252 -21.41498529 144.48075858 -22.6171875 139.3828125 C-28.05299958 109.52307764 -23.0342534 79.57662562 -9.76953125 52.64453125 C-9.46635986 52.00684814 -9.16318848 51.36916504 -8.85083008 50.7121582 C-8 49 -8 49 -6.5 46.59375 C-5.63649901 42.1143386 -8.1429545 38.60291128 -10.1875 34.6875 C-19.22060717 16.83266883 -19.22060717 16.83266883 -18 7 C-16.64724268 3.46780033 -15.44206247 2.31575891 -12.375 0.125 C-8.07927658 -1.30690781 -4.30233074 -1.55632138 0 0 Z " fill="#000000" transform="translate(118,293)"/>
<path d="M0 0 C3.75212276 2.01502889 5.63644095 3.45466142 8 7 C8.3359375 9.26953125 8.3359375 9.26953125 8.375 11.8125 C8.40335938 12.64394531 8.43171875 13.47539062 8.4609375 14.33203125 C7.6971258 18.75307696 5.72290589 21.71128068 2.11572266 24.40942383 C-0.17507726 25.85734337 -2.50121447 27.19263008 -4.875 28.5 C-5.72489502 28.97775879 -6.57479004 29.45551758 -7.45043945 29.94775391 C-27.92407283 41.28064937 -48.52614337 46.90316856 -71.81640625 47.94921875 C-72.57381104 47.98362061 -73.33121582 48.01802246 -74.11157227 48.0534668 C-76 48 -76 48 -78 47 C-78.25910156 47.7115625 -78.51820313 48.423125 -78.78515625 49.15625 C-92.78445666 81.92631656 -129.49734439 106.49337236 -161.1640625 119.27734375 C-172.39682441 123.53126032 -172.39682441 123.53126032 -178.0625 122.375 C-181.69537215 120.67450665 -183.59236982 119.23310338 -186 116 C-187.29576261 111.6913906 -187.27496042 108.0998417 -186.1875 103.75 C-182.10432781 98.61686925 -176.05657877 96.80394039 -170.08984375 94.44921875 C-145.12681787 84.56934739 -117.39835268 66.79670536 -105 42 C-106.27875 41.773125 -107.5575 41.54625 -108.875 41.3125 C-115.8413461 39.76075466 -123.53697662 36.82133485 -128 31 C-129.51149553 26.46551342 -129.77441645 22.62258684 -127.6875 18.25 C-125.24550447 14.99400596 -123.91585593 13.30528531 -120 12 C-113.8921735 11.46689794 -109.6156718 13.0258501 -104.125 15.375 C-80.80993758 25.21291656 -56.69787617 23.21804849 -33.5 13.96875 C-26.33146902 10.94013725 -19.81369669 6.96719527 -13.19946289 2.89013672 C-8.16920335 -0.1155788 -5.72376826 -0.72682772 0 0 Z " fill="#000000" transform="translate(476,291)"/>
<path d="M0 0 C5.96244363 4.67326663 5.96244363 4.67326663 6.6640625 8.9609375 C6.83545689 13.65091135 6.58933016 17.22846702 3.3125 20.8125 C-1.12024293 23.41731442 -5.88602008 25.34775729 -10.67260742 27.19433594 C-34.94333648 36.60712309 -59.07179573 54.29625753 -72.6875 76.8125 C-68.46743807 79.62587462 -63.83779432 81.21901828 -59.1328125 83.08203125 C-54.50266307 85.40760517 -51.35081917 87.8225425 -49.6875 92.8125 C-49.23757226 98.88652456 -50.2709689 101.99321372 -54.1875 106.5625 C-57.62929166 109.43065971 -61.43465902 109.11132488 -65.6875 108.8125 C-68.57387443 107.92038674 -71.29802103 106.7122298 -74.0625 105.5 C-97.61173221 95.79136247 -121.65154303 97.44002577 -145.046875 106.7734375 C-153.23419728 110.2425837 -160.91999547 114.74225468 -168.38671875 119.55078125 C-171.76646591 121.40419098 -174.97317189 121.48122443 -178.6875 120.8125 C-182.43962276 118.79747111 -184.32394095 117.35783858 -186.6875 113.8125 C-187.0234375 111.2890625 -187.0234375 111.2890625 -187.0625 108.4375 C-187.09085938 107.50164062 -187.11921875 106.56578125 -187.1484375 105.6015625 C-186.52808186 101.84788513 -185.40926942 100.48806654 -182.6875 97.8125 C-179.83396378 95.80563364 -176.85345671 94.08095366 -173.8125 92.375 C-172.96260498 91.89272949 -172.11270996 91.41045898 -171.23706055 90.91357422 C-154.38353449 81.4956607 -136.37321203 75.17684035 -117.125 73.1875 C-115.76181641 73.04634766 -115.76181641 73.04634766 -114.37109375 72.90234375 C-111.6875 72.8125 -111.6875 72.8125 -109.16015625 73.31640625 C-106.13219476 73.8473758 -104.58107483 73.93057374 -101.6875 72.8125 C-97.75503884 68.79470776 -95.01900963 63.68983219 -92.06982422 58.94140625 C-78.65661488 38.283832 -27.58572164 -12.18903979 0 0 Z " fill="#000000" transform="translate(214.6875,100.1875)"/>
<path d="M0 0 C0.75023437 0.04382813 1.50046875 0.08765625 2.2734375 0.1328125 C7.90588963 1.91049673 10.58691983 7.13450614 13.21386719 12.05224609 C13.61766602 12.83937988 14.02146484 13.62651367 14.4375 14.4375 C15.08380371 15.68781006 15.08380371 15.68781006 15.74316406 16.96337891 C30.19045604 45.46879227 38.60125007 77.0718809 39 109.0625 C39.05607422 110.78629883 39.05607422 110.78629883 39.11328125 112.54492188 C39.21114737 121.93463237 39.21114737 121.93463237 36.2265625 125.61328125 C32.16772587 129.1419095 29.43018606 129.28323219 24.171875 129.21484375 C19.88285132 128.64253538 18.42774827 127.16822922 15.625 123.875 C13.78044953 118.72934023 13.3643219 113.90910866 13.25 108.5 C12.04484038 77.94601617 3.60581083 47.5915775 -11.80859375 21.13671875 C-14.21473389 16.12642694 -14.87067917 12.44030264 -13.1875 7.125 C-10.08928606 1.5695819 -6.35620421 -0.49895118 0 0 Z " fill="#000000" transform="translate(437.375,139.125)"/>
<path d="M0 0 C2.89028599 1.310028 3.8469335 2.47014686 6 5 C7.84455047 10.14565977 8.2606781 14.96589134 8.375 20.375 C9.5018011 48.94238799 16.9762447 77.3786768 30.46435547 102.63061523 C36.18737119 113.35013668 36.18737119 113.35013668 34.75 119.234375 C33.13654444 123.03271829 31.25304731 125.23424887 27.75 127.375 C24.02302559 128.22203964 20.58860582 128.29137895 17 127 C11.20195695 123.13205417 8.67319997 118.44378009 5.6875 112.25 C5.21675049 111.28481445 4.74600098 110.31962891 4.26098633 109.32519531 C-4.93174108 90.00698778 -10.95445572 69.97594536 -15 49 C-15.14550293 48.24992676 -15.29100586 47.49985352 -15.44091797 46.72705078 C-17.0985988 37.69015858 -17.26737636 28.53899323 -17.4375 19.375 C-17.47214355 18.24707031 -17.50678711 17.11914062 -17.54248047 15.95703125 C-17.58702836 6.98265641 -17.58702836 6.98265641 -14.59765625 3.2890625 C-10.05129203 -0.71720733 -5.89941141 -0.7871914 0 0 Z " fill="#000000" transform="translate(53,244)"/>
<path d="M0 0 C5.82485779 3.51996782 10.54466582 8.98962934 12.5625 15.5 C13.36764105 23.33608208 13.68710392 31.11922577 8.5625 37.5 C3.75801361 42.54521222 -0.59927055 46.10562995 -7.70703125 46.8359375 C-16.22326573 46.92983204 -22.11345494 46.6177288 -28.40234375 40.62890625 C-34.7841668 33.72505269 -35.91792252 28.29832071 -35.7421875 18.9453125 C-35.04689797 11.08319245 -31.38995981 6.95041296 -25.53515625 1.9453125 C-18.47077988 -2.92213491 -7.84396301 -3.47595223 0 0 Z " fill="#000000" transform="translate(267.4375,233.5)"/>
<path d="M0 0 C3.96220871 3.3961789 4.49510792 4.90778181 5 10.125 C4.88735068 14.43785966 3.45117939 16.95279071 0.625 20.25 C-2.36356571 22.59815877 -5.59395138 22.66516536 -9.34375 22.57421875 C-12.69051204 22.04002404 -14.81751471 20.38123774 -17.375 18.25 C-20.2038298 14.0067553 -20.02768001 10.23265471 -19.375 5.25 C-14.98611861 -2.27379667 -7.6202592 -3.95124551 0 0 Z " fill="#000000" transform="translate(408.375,437.75)"/>
<path d="M0 0 C3.96220871 3.3961789 4.49510792 4.90778181 5 10.125 C4.88735068 14.43785966 3.45117939 16.95279071 0.625 20.25 C-2.36356571 22.59815877 -5.59395138 22.66516536 -9.34375 22.57421875 C-12.69051204 22.04002404 -14.81751471 20.38123774 -17.375 18.25 C-20.2038298 14.0067553 -20.02768001 10.23265471 -19.375 5.25 C-14.98611861 -2.27379667 -7.6202592 -3.95124551 0 0 Z " fill="#000000" transform="translate(60.375,405.75)"/>
<path d="M0 0 C3.22061851 1.77462653 4.48459119 3.15660376 6.375 6.25 C7.52907294 11.32792093 6.95975732 15.42325582 4.25 19.875 C1.31131794 22.65042195 -0.81180482 23.96441959 -4.921875 24.03125 C-8.37820065 23.77137589 -10.77970489 23.11493658 -13.875 21.5 C-16.88379611 17.96023987 -17.82848495 14.6231103 -18 10 C-17.28215337 6.4717161 -15.88192198 3.82764986 -13.22265625 1.33203125 C-9.12908882 -1.12123148 -4.60957521 -0.61552191 0 0 Z " fill="#000000" transform="translate(83,64)"/>
<path d="M0 0 C4.95848708 3.71886531 4.95848708 3.71886531 5.8671875 6.73828125 C6.46036326 11.94205044 6.34639029 15.20307269 3.25 19.6875 C-0.50954219 23.08164392 -3.35149396 23.24794772 -8.26953125 23.1171875 C-12.29378559 22.42007257 -14.00081366 20.64816221 -16.75 17.6875 C-18.60110583 13.98528834 -18.21454795 9.72843083 -17.75 5.6875 C-13.78146757 -1.11569845 -7.37846181 -3.52153859 0 0 Z " fill="#000000" transform="translate(126.75,43.3125)"/>
<path d="M0 0 C3.77358965 1.89040246 6.37726927 4.17971016 7.76171875 8.2265625 C8.33261106 11.89746145 8.26308149 14.34229626 6.875 17.8125 C1.8629337 23.65991068 1.8629337 23.65991068 -1.92578125 24.3515625 C-6.41415618 24.53752154 -9.40756307 23.87394954 -13 21 C-15.97088607 17.92301086 -16.83274333 15.26504504 -17 11 C-15.66136101 7.05101499 -14.40886922 3.55665192 -11 1 C-7.22843484 -0.25718839 -3.90066036 -0.72736263 0 0 Z " fill="#000000" transform="translate(453,402)"/>
<path d="M0 0 C3.64046387 1.86429714 6.26736374 4.0966563 7.7578125 7.96875 C8.62124683 12.74519521 7.6756877 15.89090818 5 20 C2.95943261 22.4656856 2.13026076 22.95657975 -1 24 C-6.01103128 24.3711875 -8.99128499 24.11788946 -13 21 C-16.2821659 17.7178341 -16.75953514 14.56883232 -17 10 C-16.14017292 5.98747363 -14.10545315 3.46490802 -10.8359375 0.9609375 C-7.24560753 -0.91825648 -3.89151253 -0.93747009 0 0 Z " fill="#000000" transform="translate(448,83)"/>
</svg>
